<svg xmlns="http://www.w3.org/2000/svg" viewBox="0 0 48 54" aria-hidden="true"><defs><clipPath id="cf"><path d="M24 6L41 11.3V26.6C41 36.9 34 44.2 24 47.8 14 44.2 7 36.9 7 26.6V11.3z"/></clipPath></defs><path d="M24 2l21 6.5V27c0 12.5-8.5 21-21 25C11.5 48 3 39.5 3 27V8.5z" style="fill:#14532d;stroke:#facc15" stroke-width="2.5" stroke-linejoin="round"/><path d="M24 6L41 11.3V26.6C41 36.9 34 44.2 24 47.8 14 44.2 7 36.9 7 26.6V11.3z" fill="none" style="stroke:#facc15" stroke-width="1.4" opacity="0.7"/><line x1="7" y1="20" x2="41" y2="20" style="stroke:#facc15" stroke-width="1.4" opacity="0.7"/><g clip-path="url(#cf)" fill="rgba(255,255,255,0.16)"><rect x="21.75" y="20" width="4.5" height="24"/><rect x="9" y="26.5" width="30" height="4.5"/></g><text x="24" y="17" text-anchor="middle" font-size="10.5" font-weight="800" letter-spacing="1.5" style="fill:#facc15;font-family:'Arial Black',Arial,sans-serif">OR</text><circle cx="24" cy="41" r="4.8" fill="#fff"/><path d="M24 38.2l2.6 1.9-1 3.1h-3.2l-1-3.1z" style="fill:#093019"/></svg>
