<svg xmlns="http://www.w3.org/2000/svg" viewBox="0 0 600 480" role="img" aria-label="Three-phase distribution board">
  <defs>
    <linearGradient id="bg" x1="0" y1="0" x2="1" y2="1">
      <stop offset="0" stop-color="#1e293f"/><stop offset="1" stop-color="#101828"/>
    </linearGradient>
    <pattern id="grid" width="36" height="36" patternUnits="userSpaceOnUse">
      <path d="M36 0H0v36" fill="none" stroke="rgba(255,255,255,0.05)" stroke-width="1"/>
    </pattern>
    <radialGradient id="glow" cx="0.5" cy="0.45" r="0.6">
      <stop offset="0" stop-color="rgba(245,158,11,0.16)"/><stop offset="1" stop-color="rgba(245,158,11,0)"/>
    </radialGradient>
  </defs>
  <rect width="600" height="480" fill="url(#bg)"/>
  <rect width="600" height="480" fill="url(#grid)"/>
  <rect width="600" height="480" fill="url(#glow)"/>
  <g transform="translate(100,90)">
    <g stroke="rgba(255,255,255,0.85)" stroke-width="3" fill="none">
      <rect x="110" y="52" width="180" height="196" rx="8"/>
      <line x1="110" y1="96" x2="290" y2="96" stroke-width="2"/>
    </g>
    <g stroke="#f59e0b" stroke-width="2" fill="rgba(245,158,11,0.14)">
      <rect x="130" y="112" width="20" height="34" rx="3"/><rect x="158" y="112" width="20" height="34" rx="3"/>
      <rect x="186" y="112" width="20" height="34" rx="3"/><rect x="214" y="112" width="20" height="34" rx="3"/>
      <rect x="242" y="112" width="20" height="34" rx="3"/>
      <rect x="130" y="160" width="20" height="34" rx="3"/><rect x="158" y="160" width="20" height="34" rx="3"/>
      <rect x="186" y="160" width="20" height="34" rx="3"/><rect x="214" y="160" width="20" height="34" rx="3"/>
      <rect x="242" y="160" width="20" height="34" rx="3"/>
    </g>
    <circle cx="128" cy="74" r="5" fill="#f59e0b"/>
    <text x="142" y="79" fill="rgba(255,255,255,0.28)" font-family="monospace" font-size="12">TP-N 250A</text></g>
  <rect x="24" y="24" width="120" height="26" rx="4" fill="rgba(255,255,255,0.06)" stroke="rgba(255,255,255,0.15)"/>
  <text x="38" y="41" fill="rgba(255,255,255,0.28)" font-family="monospace" font-size="12">CAL-BOAR SERIES</text>
</svg>