<svg xmlns="http://www.w3.org/2000/svg" viewBox="0 0 600 480" role="img" aria-label="Recessed LED downlight">
  <defs>
    <linearGradient id="bg" x1="0" y1="0" x2="1" y2="1">
      <stop offset="0" stop-color="#1e293f"/><stop offset="1" stop-color="#101828"/>
    </linearGradient>
    <pattern id="grid" width="36" height="36" patternUnits="userSpaceOnUse">
      <path d="M36 0H0v36" fill="none" stroke="rgba(255,255,255,0.05)" stroke-width="1"/>
    </pattern>
    <radialGradient id="glow" cx="0.5" cy="0.45" r="0.6">
      <stop offset="0" stop-color="rgba(245,158,11,0.16)"/><stop offset="1" stop-color="rgba(245,158,11,0)"/>
    </radialGradient>
  </defs>
  <rect width="600" height="480" fill="url(#bg)"/>
  <rect width="600" height="480" fill="url(#grid)"/>
  <rect width="600" height="480" fill="url(#glow)"/>
  <g transform="translate(100,90)">
    <g stroke="rgba(255,255,255,0.85)" stroke-width="3" fill="none">
      <ellipse cx="200" cy="120" rx="96" ry="30"/>
      <ellipse cx="200" cy="120" rx="64" ry="19" stroke="#f59e0b" stroke-width="2" fill="rgba(245,158,11,0.14)"/>
      <path d="M118 122v34c0 18 37 32 82 32s82-14 82-32v-34"/>
      <path d="M150 186l-10 26M250 186l10 26" stroke="rgba(255,255,255,0.28)" stroke-width="2"/>
    </g>
    <g stroke="#f59e0b" stroke-width="2">
      <line x1="176" y1="228" x2="170" y2="248"/><line x1="200" y1="230" x2="200" y2="252"/><line x1="224" y1="228" x2="230" y2="248"/>
    </g></g>
  <rect x="24" y="24" width="120" height="26" rx="4" fill="rgba(255,255,255,0.06)" stroke="rgba(255,255,255,0.15)"/>
  <text x="38" y="41" fill="rgba(255,255,255,0.28)" font-family="monospace" font-size="12">CAL-DOWN SERIES</text>
</svg>