<svg xmlns="http://www.w3.org/2000/svg" viewBox="0 0 600 480" role="img" aria-label="Emergency exit bulkhead luminaire">
  <defs>
    <linearGradient id="bg" x1="0" y1="0" x2="1" y2="1">
      <stop offset="0" stop-color="#1e293f"/><stop offset="1" stop-color="#101828"/>
    </linearGradient>
    <pattern id="grid" width="36" height="36" patternUnits="userSpaceOnUse">
      <path d="M36 0H0v36" fill="none" stroke="rgba(255,255,255,0.05)" stroke-width="1"/>
    </pattern>
    <radialGradient id="glow" cx="0.5" cy="0.45" r="0.6">
      <stop offset="0" stop-color="rgba(245,158,11,0.16)"/><stop offset="1" stop-color="rgba(245,158,11,0)"/>
    </radialGradient>
  </defs>
  <rect width="600" height="480" fill="url(#bg)"/>
  <rect width="600" height="480" fill="url(#grid)"/>
  <rect width="600" height="480" fill="url(#glow)"/>
  <g transform="translate(100,90)">
    <g stroke="rgba(255,255,255,0.85)" stroke-width="3" fill="none">
      <rect x="92" y="88" width="216" height="124" rx="10"/>
      <rect x="108" y="104" width="184" height="92" rx="6" stroke="#f59e0b" stroke-width="2" fill="rgba(245,158,11,0.14)"/>
    </g>
    <g fill="rgba(255,255,255,0.85)">
      <circle cx="164" cy="132" r="9"/>
      <path d="M156 146l16-4 14 10-6 8-12-9-14 22-10-6z"/>
    </g>
    <g stroke="rgba(255,255,255,0.85)" stroke-width="4" fill="none">
      <path d="M226 148h44m0 0l-14-13m14 13l-14 13"/>
    </g>
    <circle cx="120" cy="222" r="5" fill="#34d399"/>
    <text x="134" y="227" fill="rgba(255,255,255,0.28)" font-family="monospace" font-size="12">CHARGE</text></g>
  <rect x="24" y="24" width="120" height="26" rx="4" fill="rgba(255,255,255,0.06)" stroke="rgba(255,255,255,0.15)"/>
  <text x="38" y="41" fill="rgba(255,255,255,0.28)" font-family="monospace" font-size="12">CAL-EMER SERIES</text>
</svg>