<svg xmlns="http://www.w3.org/2000/svg" viewBox="0 0 600 480" role="img" aria-label="LED floodlight on mounting bracket">
  <defs>
    <linearGradient id="bg" x1="0" y1="0" x2="1" y2="1">
      <stop offset="0" stop-color="#1e293f"/><stop offset="1" stop-color="#101828"/>
    </linearGradient>
    <pattern id="grid" width="36" height="36" patternUnits="userSpaceOnUse">
      <path d="M36 0H0v36" fill="none" stroke="rgba(255,255,255,0.05)" stroke-width="1"/>
    </pattern>
    <radialGradient id="glow" cx="0.5" cy="0.45" r="0.6">
      <stop offset="0" stop-color="rgba(245,158,11,0.16)"/><stop offset="1" stop-color="rgba(245,158,11,0)"/>
    </radialGradient>
  </defs>
  <rect width="600" height="480" fill="url(#bg)"/>
  <rect width="600" height="480" fill="url(#grid)"/>
  <rect width="600" height="480" fill="url(#glow)"/>
  <g transform="translate(100,90)">
    <g stroke="rgba(255,255,255,0.85)" stroke-width="3" fill="none">
      <rect x="118" y="76" width="164" height="118" rx="10" transform="rotate(-8 200 135)"/>
      <rect x="136" y="92" width="128" height="86" rx="6" transform="rotate(-8 200 135)" stroke="#f59e0b" stroke-width="2" fill="rgba(245,158,11,0.14)"/>
      <path d="M170 208l-26 44h112l-26-44" />
      <rect x="150" y="252" width="100" height="12" rx="4"/>
    </g>
    <g stroke="#f59e0b" stroke-width="2">
      <line x1="292" y1="96" x2="316" y2="84"/><line x1="298" y1="128" x2="324" y2="124"/><line x1="296" y1="160" x2="320" y2="168"/>
    </g></g>
  <rect x="24" y="24" width="120" height="26" rx="4" fill="rgba(255,255,255,0.06)" stroke="rgba(255,255,255,0.15)"/>
  <text x="38" y="41" fill="rgba(255,255,255,0.28)" font-family="monospace" font-size="12">CAL-FLOO SERIES</text>
</svg>